<?xml version="1.0" standalone="no"?>
<!DOCTYPE svg PUBLIC "-//W3C//DTD SVG 20010904//EN"
 "http://www.w3.org/TR/2001/REC-SVG-20010904/DTD/svg10.dtd">
<svg version="1.0" xmlns="http://www.w3.org/2000/svg"
 width="253.000000pt" height="253.000000pt" viewBox="0 0 253.000000 253.000000"
 preserveAspectRatio="xMidYMid meet">
<metadata>
Created by potrace 1.14, written by Peter Selinger 2001-2017
</metadata>
<g transform="translate(0.000000,253.000000) scale(0.100000,-0.100000)"
fill="#000000" stroke="none">
<path d="M0 2100 c0 -235 2 -279 14 -274 22 8 28 -12 28 -89 0 -99 0 -97 -22
-97 -19 0 -20 -7 -20 -185 0 -178 1 -185 20 -185 11 0 20 -3 21 -7 1 -14 1
-137 0 -159 -1 -14 -7 -21 -18 -20 -17 1 -18 -14 -18 -184 0 -170 1 -185 17
-184 19 2 19 5 21 -116 2 -66 1 -70 -20 -70 l-23 0 0 -185 0 -185 345 0 345 0
1 73 c0 39 0 122 0 184 -1 108 0 112 21 115 22 3 23 8 24 83 1 93 -3 106 -25
103 -14 -3 -16 17 -18 180 -1 163 2 190 22 180 2 -2 10 5 17 14 12 17 56 18
642 20 l630 3 0 78 c1 73 0 77 -21 77 -22 0 -23 4 -23 80 l0 80 -634 0 -634 0
0 105 c-1 102 -1 105 21 105 22 0 22 3 22 93 0 88 -1 94 -20 93 -19 -1 -20 6
-22 117 l-2 117 37 0 c20 1 378 1 795 1 l757 1 0 159 0 159 -1140 0 -1140 0 0
-280z"/>
<path d="M1600 905 c0 -21 5 -36 13 -36 6 -1 48 -2 91 -3 88 -1 106 8 99 48
-5 26 -6 26 -104 26 l-99 0 0 -35z"/>
<path d="M2248 903 c-3 -35 -5 -38 -35 -37 -30 1 -38 -6 -34 -30 6 -31 -11
-43 -62 -43 -89 -1 -87 0 -87 -37 l0 -34 68 -1 c37 -1 79 -2 95 -3 l27 -2 0
-92 c0 -88 -1 -93 -22 -96 -20 -3 -23 -9 -21 -43 0 -22 1 -43 2 -46 1 -3 46
-5 101 -5 l100 1 0 47 c0 41 3 48 20 48 23 0 22 -3 21 108 l-1 82 50 0 c28 0
50 5 51 10 7 67 9 65 -66 65 l-70 0 0 35 0 35 68 0 c37 0 68 3 68 7 1 5 2 15
2 23 0 46 4 45 -137 45 l-135 0 -3 -37z"/>
<path d="M879 780 c-1 -8 0 -25 1 -37 1 -19 -4 -23 -27 -24 -15 0 -22 -3 -15
-6 8 -3 12 -27 12 -69 l0 -64 34 0 c25 0 35 -5 39 -19 6 -24 0 -31 -26 -31
-10 0 -17 -5 -15 -12 3 -9 42 -13 134 -14 168 -1 156 2 151 -36 l-3 -33 -140
0 -139 0 -3 -37 -3 -38 210 0 211 0 0 38 c0 38 1 38 35 36 l35 -3 0 49 c0 43
3 50 20 50 17 0 20 7 21 43 0 23 1 61 2 85 2 40 -14 72 -32 64 -3 -1 -7 13 -9
33 -2 19 -6 35 -10 36 -4 1 -114 2 -245 3 -204 1 -237 -1 -238 -14z m306 -63
c17 -3 20 -13 23 -70 2 -55 0 -67 -13 -68 -8 0 -37 0 -65 0 -27 0 -57 0 -64 0
-11 1 -15 15 -15 61 0 32 -2 64 -5 69 -10 15 71 19 139 8z"/>
<path d="M1530 758 c0 -38 0 -38 43 -40 23 0 48 -1 55 -1 12 1 13 -6 15 -119
1 -58 -1 -63 -21 -66 -12 -2 -22 -9 -22 -16 0 -9 -18 -12 -65 -10 -70 3 -90
-10 -79 -52 5 -19 16 -20 247 -19 l242 0 0 35 0 35 -65 1 c-81 2 -80 2 -80 14
0 6 10 10 23 10 22 0 22 3 22 93 0 89 -1 92 -23 91 -19 -1 -22 3 -20 32 1 18
-1 37 -5 41 -4 4 -66 7 -137 8 l-130 0 0 -37z"/>
</g>
</svg>
